<mxfile host="app.diagrams.net" modified="2024-03-20T15:59:48.420Z" agent="Mozilla/5.0 (Macintosh; Intel Mac OS X 10_15_7) AppleWebKit/537.36 (KHTML, like Gecko) Chrome/122.0.0.0 Safari/537.36 Edg/122.0.0.0" version="24.0.7" etag="B3LFeeF1jqm96S8bcAvZ" type="github">
  <diagram name="PÃ¡gina-1" id="KF6dUHl_QrUk1A6MTWeL">
    <mxGraphModel>
      <root>
        <mxCell id="0" />
        <mxCell id="1" parent="0" />
      </root>
    </mxGraphModel>
  </diagram>
</mxfile>
